<?xml version="1.0" encoding="UTF-8" standalone="no"?><!-- Generator: Gravit.io --><svg xmlns="http://www.w3.org/2000/svg" xmlns:xlink="http://www.w3.org/1999/xlink" style="isolation:isolate" viewBox="2 438.314 1950 439.686" width="1950pt" height="439.686pt"><defs><clipPath id="_clipPath_3QXlDmnG6gNJLzqIzGpdbnBv49zn9ErH"><rect x="2" y="438.314" width="1950" height="439.686"/></clipPath></defs><g clip-path="url(#_clipPath_3QXlDmnG6gNJLzqIzGpdbnBv49zn9ErH)"><rect x="2" y="438.314" width="1950" height="439.686" style="fill:rgb(0,0,0)" fill-opacity="0"/><path d=" M 2 440 C 49.711 436.36 103.235 439.704 162.541 440 C 206.687 441.929 247.183 450.605 284 460 C 341.778 498.889 287.444 493.556 389 536 C 416.038 562.545 444.191 602.315 474 607 C 516.747 618.982 582.624 610.614 660 610 C 712.275 606.391 757.285 610.068 795 621 C 931.889 648.333 1037.222 661.333 1151 621 C 1173.417 615.689 1202.166 600.754 1256 588 C 1281.333 582.333 1308.388 576.426 1335 574 C 1370.895 570.728 1417.34 573.743 1450 568 C 1463.316 565.597 1464.083 555.708 1492 550 C 1581 541.333 1567.545 519.452 1627 496 C 1658.04 483.756 1668 478.833 1734.868 460 C 1791.25 450.75 1842.763 444.937 1914 440 C 1927.133 439.888 1939.81 443.232 1952 450 L 1952 878 L 2 878 L 2 440 Z " fill="rgb(0,0,0)"/></g></svg>